<mxfile host="app.diagrams.net" modified="2023-07-30T19:14:32.694Z" agent="Mozilla/5.0 (Macintosh; Intel Mac OS X 10_15_7) AppleWebKit/605.1.15 (KHTML, like Gecko) Version/16.5.2 Safari/605.1.15" etag="s8DZdbZpEQCCPxEW3cTc" version="21.6.6" type="device">
  <diagram id="C5RBs43oDa-KdzZeNtuy" name="Page-1">
    <mxGraphModel dx="954" dy="567" grid="1" gridSize="10" guides="1" tooltips="1" connect="1" arrows="1" fold="1" page="1" pageScale="1" pageWidth="827" pageHeight="1169" math="0" shadow="0">
      <root>
        <mxCell id="WIyWlLk6GJQsqaUBKTNV-0" />
        <mxCell id="WIyWlLk6GJQsqaUBKTNV-1" parent="WIyWlLk6GJQsqaUBKTNV-0" />
        <mxCell id="1MHP-ZiUYEf7C-kfttvp-0" value="Menu.csv" style="rounded=1;whiteSpace=wrap;html=1;fillColor=#fff2cc;strokeColor=#d6b656;" vertex="1" parent="WIyWlLk6GJQsqaUBKTNV-1">
          <mxGeometry x="359" y="10" width="110" height="30" as="geometry" />
        </mxCell>
        <mxCell id="1MHP-ZiUYEf7C-kfttvp-1" value="Menu_Openrefine" style="rounded=1;whiteSpace=wrap;html=1;fillColor=#fff2cc;strokeColor=#d6b656;" vertex="1" parent="WIyWlLk6GJQsqaUBKTNV-1">
          <mxGeometry x="353" y="130" width="127" height="30" as="geometry" />
        </mxCell>
        <mxCell id="1MHP-ZiUYEf7C-kfttvp-2" value="Upload to OpenRefine" style="rounded=0;whiteSpace=wrap;html=1;fillColor=#d5e8d4;strokeColor=#82b366;" vertex="1" parent="WIyWlLk6GJQsqaUBKTNV-1">
          <mxGeometry x="351.5" y="70" width="128.5" height="30" as="geometry" />
        </mxCell>
        <mxCell id="1MHP-ZiUYEf7C-kfttvp-31" style="edgeStyle=orthogonalEdgeStyle;rounded=0;orthogonalLoop=1;jettySize=auto;html=1;exitX=0.75;exitY=0;exitDx=0;exitDy=0;" edge="1" parent="WIyWlLk6GJQsqaUBKTNV-1" source="1MHP-ZiUYEf7C-kfttvp-4">
          <mxGeometry relative="1" as="geometry">
            <mxPoint x="441" y="270" as="targetPoint" />
          </mxGeometry>
        </mxCell>
        <mxCell id="1MHP-ZiUYEf7C-kfttvp-4" value="physical_description" style="rounded=1;whiteSpace=wrap;html=1;fillColor=#fff2cc;strokeColor=#d6b656;" vertex="1" parent="WIyWlLk6GJQsqaUBKTNV-1">
          <mxGeometry x="354" y="260" width="116" height="30" as="geometry" />
        </mxCell>
        <mxCell id="1MHP-ZiUYEf7C-kfttvp-6" value="" style="shape=table;startSize=0;container=1;collapsible=0;childLayout=tableLayout;fillColor=#d5e8d4;strokeColor=#82b366;" vertex="1" parent="WIyWlLk6GJQsqaUBKTNV-1">
          <mxGeometry x="305.75" y="320" width="214.25" height="60" as="geometry" />
        </mxCell>
        <mxCell id="1MHP-ZiUYEf7C-kfttvp-7" value="" style="shape=tableRow;horizontal=0;startSize=0;swimlaneHead=0;swimlaneBody=0;strokeColor=inherit;top=0;left=0;bottom=0;right=0;collapsible=0;dropTarget=0;fillColor=none;points=[[0,0.5],[1,0.5]];portConstraint=eastwest;" vertex="1" parent="1MHP-ZiUYEf7C-kfttvp-6">
          <mxGeometry width="214.25" height="35" as="geometry" />
        </mxCell>
        <mxCell id="1MHP-ZiUYEf7C-kfttvp-8" value="Split Column" style="shape=partialRectangle;html=1;whiteSpace=wrap;connectable=0;strokeColor=inherit;overflow=hidden;fillColor=none;top=0;left=0;bottom=0;right=0;pointerEvents=1;" vertex="1" parent="1MHP-ZiUYEf7C-kfttvp-7">
          <mxGeometry width="214" height="35" as="geometry">
            <mxRectangle width="214" height="35" as="alternateBounds" />
          </mxGeometry>
        </mxCell>
        <mxCell id="1MHP-ZiUYEf7C-kfttvp-9" value="" style="shape=tableRow;horizontal=0;startSize=0;swimlaneHead=0;swimlaneBody=0;strokeColor=inherit;top=0;left=0;bottom=0;right=0;collapsible=0;dropTarget=0;fillColor=none;points=[[0,0.5],[1,0.5]];portConstraint=eastwest;" vertex="1" parent="1MHP-ZiUYEf7C-kfttvp-6">
          <mxGeometry y="35" width="214.25" height="25" as="geometry" />
        </mxCell>
        <mxCell id="1MHP-ZiUYEf7C-kfttvp-10" value="split physical_description based on ;" style="shape=partialRectangle;html=1;whiteSpace=wrap;connectable=0;strokeColor=inherit;overflow=hidden;fillColor=none;top=0;left=0;bottom=0;right=0;pointerEvents=1;" vertex="1" parent="1MHP-ZiUYEf7C-kfttvp-9">
          <mxGeometry width="214" height="25" as="geometry">
            <mxRectangle width="214" height="25" as="alternateBounds" />
          </mxGeometry>
        </mxCell>
        <mxCell id="1MHP-ZiUYEf7C-kfttvp-11" value="Clean physical_description" style="rounded=0;whiteSpace=wrap;html=1;fillColor=#d5e8d4;strokeColor=#82b366;" vertex="1" parent="WIyWlLk6GJQsqaUBKTNV-1">
          <mxGeometry x="339" y="190" width="161" height="40" as="geometry" />
        </mxCell>
        <mxCell id="1MHP-ZiUYEf7C-kfttvp-12" value="&lt;span style=&quot;caret-color: rgb(0, 0, 0); color: rgb(0, 0, 0); font-family: Helvetica; font-size: 12px; font-style: normal; font-variant-caps: normal; font-weight: 400; letter-spacing: normal; text-align: center; text-indent: 0px; text-transform: none; word-spacing: 0px; -webkit-text-stroke-width: 0px; background-color: rgb(251, 251, 251); text-decoration: none; float: none; display: inline !important;&quot;&gt;physical_description_4&lt;/span&gt;" style="rounded=1;whiteSpace=wrap;html=1;fillColor=#fff2cc;strokeColor=#d6b656;" vertex="1" parent="WIyWlLk6GJQsqaUBKTNV-1">
          <mxGeometry x="640" y="400" width="150" height="30" as="geometry" />
        </mxCell>
        <mxCell id="1MHP-ZiUYEf7C-kfttvp-13" value="&lt;span style=&quot;caret-color: rgb(0, 0, 0); color: rgb(0, 0, 0); font-family: Helvetica; font-size: 12px; font-style: normal; font-variant-caps: normal; font-weight: 400; letter-spacing: normal; text-align: center; text-indent: 0px; text-transform: none; word-spacing: 0px; -webkit-text-stroke-width: 0px; background-color: rgb(251, 251, 251); text-decoration: none; float: none; display: inline !important;&quot;&gt;physical_description_3&lt;/span&gt;" style="rounded=1;whiteSpace=wrap;html=1;fillColor=#fff2cc;strokeColor=#d6b656;" vertex="1" parent="WIyWlLk6GJQsqaUBKTNV-1">
          <mxGeometry x="460" y="400" width="131" height="30" as="geometry" />
        </mxCell>
        <mxCell id="1MHP-ZiUYEf7C-kfttvp-14" value="&lt;span style=&quot;caret-color: rgb(0, 0, 0); color: rgb(0, 0, 0); font-family: Helvetica; font-size: 12px; font-style: normal; font-variant-caps: normal; font-weight: 400; letter-spacing: normal; text-align: center; text-indent: 0px; text-transform: none; word-spacing: 0px; -webkit-text-stroke-width: 0px; background-color: rgb(251, 251, 251); text-decoration: none; float: none; display: inline !important;&quot;&gt;physical_description_2&lt;/span&gt;" style="rounded=1;whiteSpace=wrap;html=1;fillColor=#fff2cc;strokeColor=#d6b656;" vertex="1" parent="WIyWlLk6GJQsqaUBKTNV-1">
          <mxGeometry x="240" y="400" width="136" height="30" as="geometry" />
        </mxCell>
        <mxCell id="1MHP-ZiUYEf7C-kfttvp-46" value="" style="edgeStyle=orthogonalEdgeStyle;rounded=0;orthogonalLoop=1;jettySize=auto;html=1;" edge="1" parent="WIyWlLk6GJQsqaUBKTNV-1" source="1MHP-ZiUYEf7C-kfttvp-15" target="1MHP-ZiUYEf7C-kfttvp-17">
          <mxGeometry relative="1" as="geometry" />
        </mxCell>
        <mxCell id="1MHP-ZiUYEf7C-kfttvp-15" value="physical_description_1" style="rounded=1;whiteSpace=wrap;html=1;fillColor=#fff2cc;strokeColor=#d6b656;" vertex="1" parent="WIyWlLk6GJQsqaUBKTNV-1">
          <mxGeometry x="70" y="400" width="130" height="30" as="geometry" />
        </mxCell>
        <mxCell id="1MHP-ZiUYEf7C-kfttvp-16" value="rename" style="rounded=0;whiteSpace=wrap;html=1;fillColor=#d5e8d4;strokeColor=#82b366;" vertex="1" parent="WIyWlLk6GJQsqaUBKTNV-1">
          <mxGeometry x="80" y="450" width="110" height="20" as="geometry" />
        </mxCell>
        <mxCell id="1MHP-ZiUYEf7C-kfttvp-17" value="physical_description_type" style="rounded=1;whiteSpace=wrap;html=1;fillColor=#fff2cc;strokeColor=#d6b656;" vertex="1" parent="WIyWlLk6GJQsqaUBKTNV-1">
          <mxGeometry x="60" y="500" width="150" height="30" as="geometry" />
        </mxCell>
        <mxCell id="1MHP-ZiUYEf7C-kfttvp-19" value="" style="shape=table;startSize=0;container=1;collapsible=0;childLayout=tableLayout;fillColor=#d5e8d4;strokeColor=#82b366;" vertex="1" parent="WIyWlLk6GJQsqaUBKTNV-1">
          <mxGeometry x="419.5" y="460" width="280.5" height="60" as="geometry" />
        </mxCell>
        <mxCell id="1MHP-ZiUYEf7C-kfttvp-20" value="" style="shape=tableRow;horizontal=0;startSize=0;swimlaneHead=0;swimlaneBody=0;strokeColor=inherit;top=0;left=0;bottom=0;right=0;collapsible=0;dropTarget=0;fillColor=none;points=[[0,0.5],[1,0.5]];portConstraint=eastwest;" vertex="1" parent="1MHP-ZiUYEf7C-kfttvp-19">
          <mxGeometry width="280.5" height="20" as="geometry" />
        </mxCell>
        <mxCell id="1MHP-ZiUYEf7C-kfttvp-21" value="Combine Columns" style="shape=partialRectangle;html=1;whiteSpace=wrap;connectable=0;strokeColor=inherit;overflow=hidden;fillColor=none;top=0;left=0;bottom=0;right=0;pointerEvents=1;" vertex="1" parent="1MHP-ZiUYEf7C-kfttvp-20">
          <mxGeometry width="281" height="20" as="geometry">
            <mxRectangle width="281" height="20" as="alternateBounds" />
          </mxGeometry>
        </mxCell>
        <mxCell id="1MHP-ZiUYEf7C-kfttvp-22" value="" style="shape=tableRow;horizontal=0;startSize=0;swimlaneHead=0;swimlaneBody=0;strokeColor=inherit;top=0;left=0;bottom=0;right=0;collapsible=0;dropTarget=0;fillColor=none;points=[[0,0.5],[1,0.5]];portConstraint=eastwest;" vertex="1" parent="1MHP-ZiUYEf7C-kfttvp-19">
          <mxGeometry y="20" width="280.5" height="20" as="geometry" />
        </mxCell>
        <mxCell id="1MHP-ZiUYEf7C-kfttvp-23" value="Use GREL to combine physical_description 2,3,4" style="shape=partialRectangle;html=1;whiteSpace=wrap;connectable=0;strokeColor=inherit;overflow=hidden;fillColor=none;top=0;left=0;bottom=0;right=0;pointerEvents=1;" vertex="1" parent="1MHP-ZiUYEf7C-kfttvp-22">
          <mxGeometry width="281" height="20" as="geometry">
            <mxRectangle width="281" height="20" as="alternateBounds" />
          </mxGeometry>
        </mxCell>
        <mxCell id="1MHP-ZiUYEf7C-kfttvp-24" value="" style="shape=tableRow;horizontal=0;startSize=0;swimlaneHead=0;swimlaneBody=0;strokeColor=inherit;top=0;left=0;bottom=0;right=0;collapsible=0;dropTarget=0;fillColor=none;points=[[0,0.5],[1,0.5]];portConstraint=eastwest;" vertex="1" parent="1MHP-ZiUYEf7C-kfttvp-19">
          <mxGeometry y="40" width="280.5" height="20" as="geometry" />
        </mxCell>
        <mxCell id="1MHP-ZiUYEf7C-kfttvp-25" value="Separate the different column values based on -" style="shape=partialRectangle;html=1;whiteSpace=wrap;connectable=0;strokeColor=inherit;overflow=hidden;fillColor=none;top=0;left=0;bottom=0;right=0;pointerEvents=1;" vertex="1" parent="1MHP-ZiUYEf7C-kfttvp-24">
          <mxGeometry width="281" height="20" as="geometry">
            <mxRectangle width="281" height="20" as="alternateBounds" />
          </mxGeometry>
        </mxCell>
        <mxCell id="1MHP-ZiUYEf7C-kfttvp-26" value="physical_description_additional" style="rounded=1;whiteSpace=wrap;html=1;fillColor=#fff2cc;strokeColor=#d6b656;" vertex="1" parent="WIyWlLk6GJQsqaUBKTNV-1">
          <mxGeometry x="469" y="550" width="201" height="30" as="geometry" />
        </mxCell>
        <mxCell id="1MHP-ZiUYEf7C-kfttvp-27" value="" style="endArrow=classic;html=1;rounded=0;exitX=0.5;exitY=1;exitDx=0;exitDy=0;entryX=0.5;entryY=0;entryDx=0;entryDy=0;" edge="1" parent="WIyWlLk6GJQsqaUBKTNV-1" source="1MHP-ZiUYEf7C-kfttvp-0" target="1MHP-ZiUYEf7C-kfttvp-2">
          <mxGeometry width="50" height="50" relative="1" as="geometry">
            <mxPoint x="390" y="320" as="sourcePoint" />
            <mxPoint x="440" y="270" as="targetPoint" />
          </mxGeometry>
        </mxCell>
        <mxCell id="1MHP-ZiUYEf7C-kfttvp-28" value="" style="endArrow=classic;html=1;rounded=0;exitX=0.5;exitY=1;exitDx=0;exitDy=0;" edge="1" parent="WIyWlLk6GJQsqaUBKTNV-1" source="1MHP-ZiUYEf7C-kfttvp-2">
          <mxGeometry width="50" height="50" relative="1" as="geometry">
            <mxPoint x="390" y="320" as="sourcePoint" />
            <mxPoint x="416" y="130" as="targetPoint" />
          </mxGeometry>
        </mxCell>
        <mxCell id="1MHP-ZiUYEf7C-kfttvp-29" value="" style="endArrow=classic;html=1;rounded=0;exitX=0.5;exitY=1;exitDx=0;exitDy=0;" edge="1" parent="WIyWlLk6GJQsqaUBKTNV-1" source="1MHP-ZiUYEf7C-kfttvp-1" target="1MHP-ZiUYEf7C-kfttvp-11">
          <mxGeometry width="50" height="50" relative="1" as="geometry">
            <mxPoint x="390" y="320" as="sourcePoint" />
            <mxPoint x="440" y="270" as="targetPoint" />
          </mxGeometry>
        </mxCell>
        <mxCell id="1MHP-ZiUYEf7C-kfttvp-30" value="" style="endArrow=classic;html=1;rounded=0;exitX=0.5;exitY=1;exitDx=0;exitDy=0;entryX=0.586;entryY=0.067;entryDx=0;entryDy=0;entryPerimeter=0;" edge="1" parent="WIyWlLk6GJQsqaUBKTNV-1" source="1MHP-ZiUYEf7C-kfttvp-11" target="1MHP-ZiUYEf7C-kfttvp-4">
          <mxGeometry width="50" height="50" relative="1" as="geometry">
            <mxPoint x="390" y="320" as="sourcePoint" />
            <mxPoint x="440" y="270" as="targetPoint" />
          </mxGeometry>
        </mxCell>
        <mxCell id="1MHP-ZiUYEf7C-kfttvp-32" value="" style="endArrow=classic;html=1;rounded=0;exitX=0.5;exitY=1;exitDx=0;exitDy=0;entryX=0.501;entryY=0;entryDx=0;entryDy=0;entryPerimeter=0;" edge="1" parent="WIyWlLk6GJQsqaUBKTNV-1" source="1MHP-ZiUYEf7C-kfttvp-4" target="1MHP-ZiUYEf7C-kfttvp-7">
          <mxGeometry width="50" height="50" relative="1" as="geometry">
            <mxPoint x="390" y="320" as="sourcePoint" />
            <mxPoint x="440" y="270" as="targetPoint" />
          </mxGeometry>
        </mxCell>
        <mxCell id="1MHP-ZiUYEf7C-kfttvp-36" value="" style="endArrow=classic;html=1;rounded=0;exitX=0.006;exitY=1.04;exitDx=0;exitDy=0;exitPerimeter=0;" edge="1" parent="WIyWlLk6GJQsqaUBKTNV-1" source="1MHP-ZiUYEf7C-kfttvp-9">
          <mxGeometry width="50" height="50" relative="1" as="geometry">
            <mxPoint x="390" y="320" as="sourcePoint" />
            <mxPoint x="130" y="400" as="targetPoint" />
          </mxGeometry>
        </mxCell>
        <mxCell id="1MHP-ZiUYEf7C-kfttvp-37" value="" style="endArrow=classic;html=1;rounded=0;exitX=0.286;exitY=1.12;exitDx=0;exitDy=0;exitPerimeter=0;entryX=0.5;entryY=0;entryDx=0;entryDy=0;" edge="1" parent="WIyWlLk6GJQsqaUBKTNV-1" source="1MHP-ZiUYEf7C-kfttvp-9" target="1MHP-ZiUYEf7C-kfttvp-14">
          <mxGeometry width="50" height="50" relative="1" as="geometry">
            <mxPoint x="390" y="320" as="sourcePoint" />
            <mxPoint x="440" y="270" as="targetPoint" />
          </mxGeometry>
        </mxCell>
        <mxCell id="1MHP-ZiUYEf7C-kfttvp-38" value="" style="endArrow=classic;html=1;rounded=0;exitX=0.627;exitY=1.04;exitDx=0;exitDy=0;exitPerimeter=0;entryX=0.565;entryY=-0.033;entryDx=0;entryDy=0;entryPerimeter=0;" edge="1" parent="WIyWlLk6GJQsqaUBKTNV-1" source="1MHP-ZiUYEf7C-kfttvp-9" target="1MHP-ZiUYEf7C-kfttvp-13">
          <mxGeometry width="50" height="50" relative="1" as="geometry">
            <mxPoint x="390" y="320" as="sourcePoint" />
            <mxPoint x="440" y="270" as="targetPoint" />
          </mxGeometry>
        </mxCell>
        <mxCell id="1MHP-ZiUYEf7C-kfttvp-39" value="" style="endArrow=classic;html=1;rounded=0;exitX=0.995;exitY=1.04;exitDx=0;exitDy=0;exitPerimeter=0;entryX=0.56;entryY=0;entryDx=0;entryDy=0;entryPerimeter=0;" edge="1" parent="WIyWlLk6GJQsqaUBKTNV-1" source="1MHP-ZiUYEf7C-kfttvp-9" target="1MHP-ZiUYEf7C-kfttvp-12">
          <mxGeometry width="50" height="50" relative="1" as="geometry">
            <mxPoint x="390" y="320" as="sourcePoint" />
            <mxPoint x="440" y="270" as="targetPoint" />
          </mxGeometry>
        </mxCell>
        <mxCell id="1MHP-ZiUYEf7C-kfttvp-40" value="" style="endArrow=classic;html=1;rounded=0;exitX=0.5;exitY=1;exitDx=0;exitDy=0;entryX=0.5;entryY=0;entryDx=0;entryDy=0;" edge="1" parent="WIyWlLk6GJQsqaUBKTNV-1" source="1MHP-ZiUYEf7C-kfttvp-15" target="1MHP-ZiUYEf7C-kfttvp-16">
          <mxGeometry width="50" height="50" relative="1" as="geometry">
            <mxPoint x="390" y="320" as="sourcePoint" />
            <mxPoint x="440" y="270" as="targetPoint" />
          </mxGeometry>
        </mxCell>
        <mxCell id="1MHP-ZiUYEf7C-kfttvp-41" value="" style="endArrow=classic;html=1;rounded=0;exitX=0.5;exitY=1;exitDx=0;exitDy=0;entryX=0.5;entryY=0;entryDx=0;entryDy=0;" edge="1" parent="WIyWlLk6GJQsqaUBKTNV-1" source="1MHP-ZiUYEf7C-kfttvp-16" target="1MHP-ZiUYEf7C-kfttvp-17">
          <mxGeometry width="50" height="50" relative="1" as="geometry">
            <mxPoint x="390" y="320" as="sourcePoint" />
            <mxPoint x="440" y="270" as="targetPoint" />
          </mxGeometry>
        </mxCell>
        <mxCell id="1MHP-ZiUYEf7C-kfttvp-42" value="" style="endArrow=classic;html=1;rounded=0;exitX=0.5;exitY=1;exitDx=0;exitDy=0;entryX=0;entryY=0.5;entryDx=0;entryDy=0;" edge="1" parent="WIyWlLk6GJQsqaUBKTNV-1" source="1MHP-ZiUYEf7C-kfttvp-14" target="1MHP-ZiUYEf7C-kfttvp-20">
          <mxGeometry width="50" height="50" relative="1" as="geometry">
            <mxPoint x="390" y="320" as="sourcePoint" />
            <mxPoint x="440" y="270" as="targetPoint" />
          </mxGeometry>
        </mxCell>
        <mxCell id="1MHP-ZiUYEf7C-kfttvp-43" value="" style="endArrow=classic;html=1;rounded=0;exitX=0.5;exitY=1;exitDx=0;exitDy=0;entryX=0.451;entryY=-0.05;entryDx=0;entryDy=0;entryPerimeter=0;" edge="1" parent="WIyWlLk6GJQsqaUBKTNV-1" source="1MHP-ZiUYEf7C-kfttvp-13" target="1MHP-ZiUYEf7C-kfttvp-20">
          <mxGeometry width="50" height="50" relative="1" as="geometry">
            <mxPoint x="390" y="320" as="sourcePoint" />
            <mxPoint x="440" y="270" as="targetPoint" />
          </mxGeometry>
        </mxCell>
        <mxCell id="1MHP-ZiUYEf7C-kfttvp-44" value="" style="endArrow=classic;html=1;rounded=0;exitX=0.5;exitY=1;exitDx=0;exitDy=0;entryX=1.007;entryY=0.2;entryDx=0;entryDy=0;entryPerimeter=0;" edge="1" parent="WIyWlLk6GJQsqaUBKTNV-1" source="1MHP-ZiUYEf7C-kfttvp-12" target="1MHP-ZiUYEf7C-kfttvp-20">
          <mxGeometry width="50" height="50" relative="1" as="geometry">
            <mxPoint x="390" y="320" as="sourcePoint" />
            <mxPoint x="440" y="270" as="targetPoint" />
          </mxGeometry>
        </mxCell>
        <mxCell id="1MHP-ZiUYEf7C-kfttvp-45" value="" style="endArrow=classic;html=1;rounded=0;exitX=0.501;exitY=0.9;exitDx=0;exitDy=0;exitPerimeter=0;entryX=0.458;entryY=0.033;entryDx=0;entryDy=0;entryPerimeter=0;" edge="1" parent="WIyWlLk6GJQsqaUBKTNV-1" source="1MHP-ZiUYEf7C-kfttvp-24" target="1MHP-ZiUYEf7C-kfttvp-26">
          <mxGeometry width="50" height="50" relative="1" as="geometry">
            <mxPoint x="390" y="320" as="sourcePoint" />
            <mxPoint x="440" y="270" as="targetPoint" />
          </mxGeometry>
        </mxCell>
      </root>
    </mxGraphModel>
  </diagram>
</mxfile>
